<svg width="431" height="125" viewBox="0 0 431 125" fill="none" xmlns="http://www.w3.org/2000/svg">
<path d="M10.7 23.27C8.64 23.27 6.85 22.83 5.33 21.95C3.83 21.07 2.67 19.81 1.85 18.17C1.03 16.53 0.62 14.61 0.62 12.41C0.62 10.21 1.02 8.3 1.82 6.68C2.64 5.04 3.81 3.78 5.33 2.9C6.85 2.02 8.64 1.58 10.7 1.58C12.76 1.58 14.54 2.02 16.04 2.9C17.56 3.78 18.72 5.04 19.52 6.68C20.34 8.3 20.75 10.21 20.75 12.41C20.75 14.61 20.34 16.53 19.52 18.17C18.7 19.81 17.53 21.07 16.01 21.95C14.51 22.83 12.74 23.27 10.7 23.27ZM10.7 20.18C12.64 20.18 14.15 19.51 15.23 18.17C16.33 16.83 16.88 14.91 16.88 12.41C16.88 9.91 16.33 8 15.23 6.68C14.15 5.34 12.64 4.67 10.7 4.67C8.74 4.67 7.21 5.34 6.11 6.68C5.03 8 4.49 9.91 4.49 12.41C4.49 14.91 5.03 16.83 6.11 18.17C7.21 19.51 8.74 20.18 10.7 20.18ZM26.1889 23.18C25.6489 23.18 25.1989 23.03 24.8389 22.73C24.4989 22.41 24.3289 21.96 24.3289 21.38V3.47C24.3289 2.89 24.4989 2.45 24.8389 2.15C25.1989 1.85 25.6489 1.7 26.1889 1.7C26.7289 1.7 27.1789 1.85 27.5389 2.15C27.8989 2.45 28.0789 2.89 28.0789 3.47V21.38C28.0789 21.96 27.8989 22.41 27.5389 22.73C27.1789 23.03 26.7289 23.18 26.1889 23.18ZM38.3061 7.97C40.3461 7.97 41.8561 8.48 42.8361 9.5C43.8361 10.5 44.3361 12.03 44.3361 14.09V21.41C44.3361 21.95 44.1761 22.38 43.8561 22.7C43.5361 23 43.0961 23.15 42.5361 23.15C42.0161 23.15 41.5861 22.99 41.2461 22.67C40.9261 22.35 40.7661 21.93 40.7661 21.41V20.75C40.4261 21.53 39.8861 22.14 39.1461 22.58C38.4261 23.02 37.5861 23.24 36.6261 23.24C35.6461 23.24 34.7561 23.04 33.9561 22.64C33.1561 22.24 32.5261 21.69 32.0661 20.99C31.6061 20.29 31.3761 19.51 31.3761 18.65C31.3761 17.57 31.6461 16.72 32.1861 16.1C32.7461 15.48 33.6461 15.03 34.8861 14.75C36.1261 14.47 37.8361 14.33 40.0161 14.33H40.7661V13.64C40.7661 12.66 40.5561 11.95 40.1361 11.51C39.7161 11.05 39.0361 10.82 38.0961 10.82C37.5161 10.82 36.9261 10.91 36.3261 11.09C35.7261 11.25 35.0161 11.49 34.1961 11.81C33.6761 12.07 33.2961 12.2 33.0561 12.2C32.6961 12.2 32.3961 12.07 32.1561 11.81C31.9361 11.55 31.8261 11.21 31.8261 10.79C31.8261 10.45 31.9061 10.16 32.0661 9.92C32.2461 9.66 32.5361 9.42 32.9361 9.2C33.6361 8.82 34.4661 8.52 35.4261 8.3C36.4061 8.08 37.3661 7.97 38.3061 7.97ZM37.3761 20.54C38.3761 20.54 39.1861 20.21 39.8061 19.55C40.4461 18.87 40.7661 18 40.7661 16.94V16.31H40.2261C38.8861 16.31 37.8461 16.37 37.1061 16.49C36.3661 16.61 35.8361 16.82 35.5161 17.12C35.1961 17.42 35.0361 17.83 35.0361 18.35C35.0361 18.99 35.2561 19.52 35.6961 19.94C36.1561 20.34 36.7161 20.54 37.3761 20.54ZM39.0561 6.32C38.8361 6.48 38.6161 6.56 38.3961 6.56C38.1161 6.56 37.8761 6.47 37.6761 6.29C37.4961 6.09 37.4061 5.86 37.4061 5.6C37.4061 5.38 37.4861 5.16 37.6461 4.94L40.5561 1.07C41.0161 0.469999 41.5461 0.169999 42.1461 0.169999C42.5861 0.169999 42.9561 0.329999 43.2561 0.649998C43.5761 0.949999 43.7361 1.31 43.7361 1.73C43.7361 2.29 43.4661 2.77 42.9261 3.17L39.0561 6.32ZM49.8573 18.68C50.5373 18.68 51.0873 18.93 51.5073 19.43C51.9273 19.93 52.1373 20.66 52.1373 21.62C52.1373 23.52 51.4773 25.16 50.1573 26.54C49.8973 26.8 49.6173 26.93 49.3173 26.93C49.0173 26.93 48.7573 26.83 48.5373 26.63C48.3173 26.43 48.2073 26.19 48.2073 25.91C48.2073 25.67 48.3073 25.44 48.5073 25.22C49.1073 24.58 49.4973 23.86 49.6773 23.06C49.0973 23 48.6173 22.78 48.2373 22.4C47.8773 22 47.6973 21.51 47.6973 20.93C47.6973 20.29 47.8973 19.76 48.2973 19.34C48.7173 18.9 49.2373 18.68 49.8573 18.68ZM70.4232 23.24C68.9232 23.24 67.6032 22.93 66.4632 22.31C65.3432 21.69 64.4732 20.8 63.8532 19.64C63.2332 18.48 62.9232 17.13 62.9232 15.59C62.9232 14.05 63.2332 12.71 63.8532 11.57C64.4732 10.41 65.3432 9.52 66.4632 8.9C67.6032 8.28 68.9232 7.97 70.4232 7.97C71.9232 7.97 73.2332 8.28 74.3532 8.9C75.4932 9.52 76.3632 10.41 76.9632 11.57C77.5832 12.71 77.8932 14.05 77.8932 15.59C77.8932 17.13 77.5832 18.48 76.9632 19.64C76.3632 20.8 75.4932 21.69 74.3532 22.31C73.2332 22.93 71.9232 23.24 70.4232 23.24ZM70.3932 20.33C71.6132 20.33 72.5432 19.93 73.1832 19.13C73.8232 18.33 74.1432 17.15 74.1432 15.59C74.1432 14.05 73.8232 12.88 73.1832 12.08C72.5432 11.26 71.6232 10.85 70.4232 10.85C69.2232 10.85 68.2932 11.26 67.6332 12.08C66.9932 12.88 66.6732 14.05 66.6732 15.59C66.6732 17.15 66.9932 18.33 67.6332 19.13C68.2732 19.93 69.1932 20.33 70.3932 20.33ZM101.434 8.03C101.994 8.03 102.444 8.19 102.784 8.51C103.124 8.83 103.294 9.26 103.294 9.8V26.81C103.294 27.33 103.114 27.75 102.754 28.07C102.394 28.39 101.934 28.55 101.374 28.55C100.814 28.55 100.364 28.39 100.024 28.07C99.7036 27.77 99.5436 27.37 99.5436 26.87V20.69C99.1036 21.49 98.4636 22.12 97.6236 22.58C96.8036 23.02 95.8736 23.24 94.8336 23.24C93.5536 23.24 92.4236 22.93 91.4436 22.31C90.4636 21.69 89.6936 20.81 89.1336 19.67C88.5936 18.53 88.3236 17.2 88.3236 15.68C88.3236 14.16 88.5936 12.82 89.1336 11.66C89.6936 10.48 90.4636 9.57 91.4436 8.93C92.4436 8.29 93.5736 7.97 94.8336 7.97C95.8936 7.97 96.8336 8.2 97.6536 8.66C98.4936 9.1 99.1336 9.73 99.5736 10.55V9.8C99.5736 9.26 99.7436 8.83 100.084 8.51C100.424 8.19 100.874 8.03 101.434 8.03ZM95.8536 20.33C97.0336 20.33 97.9436 19.92 98.5836 19.1C99.2436 18.28 99.5736 17.12 99.5736 15.62C99.5736 14.1 99.2436 12.93 98.5836 12.11C97.9436 11.29 97.0236 10.88 95.8236 10.88C94.6436 10.88 93.7236 11.3 93.0636 12.14C92.4036 12.98 92.0736 14.16 92.0736 15.68C92.0736 17.16 92.4036 18.31 93.0636 19.13C93.7236 19.93 94.6536 20.33 95.8536 20.33ZM118.731 8.03C119.311 8.03 119.771 8.19 120.111 8.51C120.451 8.83 120.621 9.26 120.621 9.8V21.44C120.621 21.96 120.441 22.38 120.081 22.7C119.741 23.02 119.291 23.18 118.731 23.18C118.191 23.18 117.761 23.03 117.441 22.73C117.121 22.43 116.961 22.02 116.961 21.5V20.75C116.501 21.55 115.881 22.17 115.101 22.61C114.321 23.03 113.441 23.24 112.461 23.24C108.861 23.24 107.061 21.22 107.061 17.18V9.8C107.061 9.26 107.231 8.83 107.571 8.51C107.911 8.19 108.361 8.03 108.921 8.03C109.501 8.03 109.961 8.19 110.301 8.51C110.641 8.83 110.811 9.26 110.811 9.8V17.21C110.811 18.25 111.021 19.02 111.441 19.52C111.861 20.02 112.521 20.27 113.421 20.27C114.461 20.27 115.291 19.93 115.911 19.25C116.551 18.55 116.871 17.63 116.871 16.49V9.8C116.871 9.26 117.041 8.83 117.381 8.51C117.721 8.19 118.171 8.03 118.731 8.03ZM136.134 18.98C136.474 18.98 136.744 19.11 136.944 19.37C137.164 19.63 137.274 19.98 137.274 20.42C137.274 21.04 136.904 21.56 136.164 21.98C135.484 22.36 134.714 22.67 133.854 22.91C132.994 23.13 132.174 23.24 131.394 23.24C129.034 23.24 127.164 22.56 125.784 21.2C124.404 19.84 123.714 17.98 123.714 15.62C123.714 14.12 124.014 12.79 124.614 11.63C125.214 10.47 126.054 9.57 127.134 8.93C128.234 8.29 129.474 7.97 130.854 7.97C132.174 7.97 133.324 8.26 134.304 8.84C135.284 9.42 136.044 10.24 136.584 11.3C137.124 12.36 137.394 13.61 137.394 15.05C137.394 15.91 137.014 16.34 136.254 16.34H127.404C127.524 17.72 127.914 18.74 128.574 19.4C129.234 20.04 130.194 20.36 131.454 20.36C132.094 20.36 132.654 20.28 133.134 20.12C133.634 19.96 134.194 19.74 134.814 19.46C135.414 19.14 135.854 18.98 136.134 18.98ZM130.944 10.61C129.924 10.61 129.104 10.93 128.484 11.57C127.884 12.21 127.524 13.13 127.404 14.33H134.184C134.144 13.11 133.844 12.19 133.284 11.57C132.724 10.93 131.944 10.61 130.944 10.61ZM158.836 9.11C158.996 8.75 159.206 8.48 159.466 8.3C159.746 8.12 160.046 8.03 160.366 8.03C160.826 8.03 161.236 8.19 161.596 8.51C161.976 8.81 162.166 9.19 162.166 9.65C162.166 9.89 162.106 10.13 161.986 10.37L156.436 21.98C156.256 22.36 155.996 22.65 155.656 22.85C155.336 23.05 154.976 23.15 154.576 23.15C154.196 23.15 153.826 23.05 153.466 22.85C153.126 22.65 152.866 22.36 152.686 21.98L147.106 10.37C147.006 10.17 146.956 9.94 146.956 9.68C146.956 9.22 147.146 8.83 147.526 8.51C147.926 8.19 148.376 8.03 148.876 8.03C149.596 8.03 150.126 8.38 150.466 9.08L154.666 18.35L158.836 9.11ZM170.853 23.24C169.353 23.24 168.033 22.93 166.893 22.31C165.773 21.69 164.903 20.8 164.283 19.64C163.663 18.48 163.353 17.13 163.353 15.59C163.353 14.05 163.663 12.71 164.283 11.57C164.903 10.41 165.773 9.52 166.893 8.9C168.033 8.28 169.353 7.97 170.853 7.97C172.353 7.97 173.663 8.28 174.783 8.9C175.923 9.52 176.793 10.41 177.393 11.57C178.013 12.71 178.323 14.05 178.323 15.59C178.323 17.13 178.013 18.48 177.393 19.64C176.793 20.8 175.923 21.69 174.783 22.31C173.663 22.93 172.353 23.24 170.853 23.24ZM170.823 20.33C172.043 20.33 172.973 19.93 173.613 19.13C174.253 18.33 174.573 17.15 174.573 15.59C174.573 14.05 174.253 12.88 173.613 12.08C172.973 11.26 172.053 10.85 170.853 10.85C169.653 10.85 168.723 11.26 168.063 12.08C167.423 12.88 167.103 14.05 167.103 15.59C167.103 17.15 167.423 18.33 168.063 19.13C168.703 19.93 169.623 20.33 170.823 20.33ZM187.929 23.24C186.469 23.24 185.179 22.93 184.059 22.31C182.959 21.69 182.109 20.81 181.509 19.67C180.909 18.53 180.609 17.2 180.609 15.68C180.609 14.16 180.919 12.82 181.539 11.66C182.179 10.48 183.069 9.57 184.209 8.93C185.349 8.29 186.659 7.97 188.139 7.97C188.919 7.97 189.699 8.08 190.479 8.3C191.279 8.52 191.979 8.82 192.579 9.2C193.219 9.62 193.539 10.15 193.539 10.79C193.539 11.23 193.429 11.59 193.209 11.87C193.009 12.13 192.739 12.26 192.399 12.26C192.179 12.26 191.949 12.21 191.709 12.11C191.469 12.01 191.229 11.89 190.989 11.75C190.549 11.49 190.129 11.29 189.729 11.15C189.329 10.99 188.869 10.91 188.349 10.91C187.109 10.91 186.149 11.32 185.469 12.14C184.809 12.94 184.479 14.1 184.479 15.62C184.479 17.12 184.809 18.28 185.469 19.1C186.149 19.9 187.109 20.3 188.349 20.3C188.849 20.3 189.289 20.23 189.669 20.09C190.069 19.93 190.509 19.72 190.989 19.46C191.289 19.28 191.549 19.15 191.769 19.07C191.989 18.97 192.209 18.92 192.429 18.92C192.749 18.92 193.019 19.06 193.239 19.34C193.459 19.62 193.569 19.97 193.569 20.39C193.569 20.73 193.489 21.03 193.329 21.29C193.189 21.53 192.949 21.75 192.609 21.95C191.989 22.35 191.269 22.67 190.449 22.91C189.629 23.13 188.789 23.24 187.929 23.24ZM207.677 18.98C208.017 18.98 208.287 19.11 208.487 19.37C208.707 19.63 208.817 19.98 208.817 20.42C208.817 21.04 208.447 21.56 207.707 21.98C207.027 22.36 206.257 22.67 205.397 22.91C204.537 23.13 203.717 23.24 202.937 23.24C200.577 23.24 198.707 22.56 197.327 21.2C195.947 19.84 195.257 17.98 195.257 15.62C195.257 14.12 195.557 12.79 196.157 11.63C196.757 10.47 197.597 9.57 198.677 8.93C199.777 8.29 201.017 7.97 202.397 7.97C203.717 7.97 204.867 8.26 205.847 8.84C206.827 9.42 207.587 10.24 208.127 11.3C208.667 12.36 208.937 13.61 208.937 15.05C208.937 15.91 208.557 16.34 207.797 16.34H198.947C199.067 17.72 199.457 18.74 200.117 19.4C200.777 20.04 201.737 20.36 202.997 20.36C203.637 20.36 204.197 20.28 204.677 20.12C205.177 19.96 205.737 19.74 206.357 19.46C206.957 19.14 207.397 18.98 207.677 18.98ZM202.487 10.61C201.467 10.61 200.647 10.93 200.027 11.57C199.427 12.21 199.067 13.13 198.947 14.33H205.727C205.687 13.11 205.387 12.19 204.827 11.57C204.267 10.93 203.487 10.61 202.487 10.61ZM200.267 5.93C199.987 6.35 199.637 6.56 199.217 6.56C198.897 6.56 198.607 6.44 198.347 6.2C198.107 5.96 197.987 5.68 197.987 5.36C197.987 5.1 198.077 4.84 198.257 4.58L200.897 1.01C201.137 0.709999 201.367 0.489999 201.587 0.349998C201.807 0.209999 202.077 0.139999 202.397 0.139999C202.737 0.139999 203.017 0.209999 203.237 0.349998C203.457 0.489999 203.677 0.719999 203.897 1.04L206.537 4.58C206.717 4.82 206.807 5.08 206.807 5.36C206.807 5.68 206.677 5.96 206.417 6.2C206.177 6.44 205.897 6.56 205.577 6.56C205.157 6.56 204.807 6.35 204.527 5.93L202.397 2.63L200.267 5.93ZM231.759 18.98C232.099 18.98 232.369 19.11 232.569 19.37C232.789 19.63 232.899 19.98 232.899 20.42C232.899 21.04 232.529 21.56 231.789 21.98C231.109 22.36 230.339 22.67 229.479 22.91C228.619 23.13 227.799 23.24 227.019 23.24C224.659 23.24 222.789 22.56 221.409 21.2C220.029 19.84 219.339 17.98 219.339 15.62C219.339 14.12 219.639 12.79 220.239 11.63C220.839 10.47 221.679 9.57 222.759 8.93C223.859 8.29 225.099 7.97 226.479 7.97C227.799 7.97 228.949 8.26 229.929 8.84C230.909 9.42 231.669 10.24 232.209 11.3C232.749 12.36 233.019 13.61 233.019 15.05C233.019 15.91 232.639 16.34 231.879 16.34H223.029C223.149 17.72 223.539 18.74 224.199 19.4C224.859 20.04 225.819 20.36 227.079 20.36C227.719 20.36 228.279 20.28 228.759 20.12C229.259 19.96 229.819 19.74 230.439 19.46C231.039 19.14 231.479 18.98 231.759 18.98ZM226.569 10.61C225.549 10.61 224.729 10.93 224.109 11.57C223.509 12.21 223.149 13.13 223.029 14.33H229.809C229.769 13.11 229.469 12.19 228.909 11.57C228.349 10.93 227.569 10.61 226.569 10.61ZM241.397 23.24C239.217 23.24 237.457 22.81 236.117 21.95C235.477 21.57 235.157 21.03 235.157 20.33C235.157 19.93 235.267 19.61 235.487 19.37C235.707 19.11 235.977 18.98 236.297 18.98C236.637 18.98 237.107 19.14 237.707 19.46C238.347 19.76 238.927 19.99 239.447 20.15C239.987 20.31 240.667 20.39 241.487 20.39C242.327 20.39 242.977 20.25 243.437 19.97C243.917 19.69 244.157 19.3 244.157 18.8C244.157 18.46 244.057 18.19 243.857 17.99C243.677 17.79 243.337 17.61 242.837 17.45C242.357 17.27 241.617 17.07 240.617 16.85C238.837 16.49 237.557 15.98 236.777 15.32C236.017 14.66 235.637 13.75 235.637 12.59C235.637 11.71 235.897 10.92 236.417 10.22C236.937 9.5 237.647 8.95 238.547 8.57C239.467 8.17 240.507 7.97 241.667 7.97C242.507 7.97 243.317 8.08 244.097 8.3C244.877 8.5 245.577 8.8 246.197 9.2C246.837 9.6 247.157 10.13 247.157 10.79C247.157 11.19 247.047 11.53 246.827 11.81C246.607 12.07 246.337 12.2 246.017 12.2C245.797 12.2 245.577 12.16 245.357 12.08C245.157 11.98 244.897 11.84 244.577 11.66C243.997 11.36 243.497 11.14 243.077 11C242.657 10.84 242.137 10.76 241.517 10.76C240.777 10.76 240.187 10.91 239.747 11.21C239.327 11.51 239.117 11.92 239.117 12.44C239.117 12.94 239.337 13.32 239.777 13.58C240.217 13.84 241.067 14.1 242.327 14.36C243.667 14.64 244.717 14.96 245.477 15.32C246.237 15.68 246.777 16.13 247.097 16.67C247.437 17.21 247.607 17.9 247.607 18.74C247.607 20.1 247.037 21.19 245.897 22.01C244.777 22.83 243.277 23.24 241.397 23.24ZM258.121 20.39C259.121 20.45 259.621 20.9 259.621 21.74C259.621 22.22 259.421 22.59 259.021 22.85C258.641 23.09 258.091 23.19 257.371 23.15L256.561 23.09C253.201 22.85 251.521 21.05 251.521 17.69V11.15H250.021C249.481 11.15 249.061 11.03 248.761 10.79C248.481 10.55 248.341 10.2 248.341 9.74C248.341 9.28 248.481 8.93 248.761 8.69C249.061 8.45 249.481 8.33 250.021 8.33H251.521V5.57C251.521 5.03 251.691 4.6 252.031 4.28C252.371 3.96 252.831 3.8 253.411 3.8C253.971 3.8 254.421 3.96 254.761 4.28C255.101 4.6 255.271 5.03 255.271 5.57V8.33H257.821C258.361 8.33 258.771 8.45 259.051 8.69C259.351 8.93 259.501 9.28 259.501 9.74C259.501 10.2 259.351 10.55 259.051 10.79C258.771 11.03 258.361 11.15 257.821 11.15H255.271V17.96C255.271 19.44 255.951 20.23 257.311 20.33L258.121 20.39ZM267.935 7.97C269.975 7.97 271.485 8.48 272.465 9.5C273.465 10.5 273.965 12.03 273.965 14.09V21.41C273.965 21.95 273.805 22.38 273.485 22.7C273.165 23 272.725 23.15 272.165 23.15C271.645 23.15 271.215 22.99 270.875 22.67C270.555 22.35 270.395 21.93 270.395 21.41V20.75C270.055 21.53 269.515 22.14 268.775 22.58C268.055 23.02 267.215 23.24 266.255 23.24C265.275 23.24 264.385 23.04 263.585 22.64C262.785 22.24 262.155 21.69 261.695 20.99C261.235 20.29 261.005 19.51 261.005 18.65C261.005 17.57 261.275 16.72 261.815 16.1C262.375 15.48 263.275 15.03 264.515 14.75C265.755 14.47 267.465 14.33 269.645 14.33H270.395V13.64C270.395 12.66 270.185 11.95 269.765 11.51C269.345 11.05 268.665 10.82 267.725 10.82C267.145 10.82 266.555 10.91 265.955 11.09C265.355 11.25 264.645 11.49 263.825 11.81C263.305 12.07 262.925 12.2 262.685 12.2C262.325 12.2 262.025 12.07 261.785 11.81C261.565 11.55 261.455 11.21 261.455 10.79C261.455 10.45 261.535 10.16 261.695 9.92C261.875 9.66 262.165 9.42 262.565 9.2C263.265 8.82 264.095 8.52 265.055 8.3C266.035 8.08 266.995 7.97 267.935 7.97ZM267.005 20.54C268.005 20.54 268.815 20.21 269.435 19.55C270.075 18.87 270.395 18 270.395 16.94V16.31H269.855C268.515 16.31 267.475 16.37 266.735 16.49C265.995 16.61 265.465 16.82 265.145 17.12C264.825 17.42 264.665 17.83 264.665 18.35C264.665 18.99 264.885 19.52 265.325 19.94C265.785 20.34 266.345 20.54 267.005 20.54ZM268.685 6.32C268.465 6.48 268.245 6.56 268.025 6.56C267.745 6.56 267.505 6.47 267.305 6.29C267.125 6.09 267.035 5.86 267.035 5.6C267.035 5.38 267.115 5.16 267.275 4.94L270.185 1.07C270.645 0.469999 271.175 0.169999 271.775 0.169999C272.215 0.169999 272.585 0.329999 272.885 0.649998C273.205 0.949999 273.365 1.31 273.365 1.73C273.365 2.29 273.095 2.77 272.555 3.17L268.685 6.32ZM294.351 7.97C295.631 7.97 296.761 8.28 297.741 8.9C298.721 9.52 299.481 10.4 300.021 11.54C300.581 12.68 300.861 14.01 300.861 15.53C300.861 17.05 300.581 18.4 300.021 19.58C299.481 20.74 298.711 21.64 297.711 22.28C296.731 22.92 295.611 23.24 294.351 23.24C293.291 23.24 292.341 23.01 291.501 22.55C290.681 22.09 290.051 21.45 289.611 20.63V21.38C289.611 21.92 289.441 22.35 289.101 22.67C288.761 22.99 288.311 23.15 287.751 23.15C287.191 23.15 286.741 22.99 286.401 22.67C286.081 22.35 285.921 21.92 285.921 21.38V3.44C285.921 2.92 286.091 2.5 286.431 2.18C286.791 1.86 287.251 1.7 287.811 1.7C288.371 1.7 288.821 1.85 289.161 2.15C289.501 2.45 289.671 2.86 289.671 3.38V10.46C290.111 9.66 290.741 9.05 291.561 8.63C292.381 8.19 293.311 7.97 294.351 7.97ZM293.361 20.33C294.541 20.33 295.461 19.91 296.121 19.07C296.781 18.23 297.111 17.05 297.111 15.53C297.111 14.03 296.781 12.88 296.121 12.08C295.481 11.28 294.561 10.88 293.361 10.88C292.161 10.88 291.231 11.29 290.571 12.11C289.931 12.91 289.611 14.07 289.611 15.59C289.611 17.11 289.931 18.28 290.571 19.1C291.231 19.92 292.161 20.33 293.361 20.33ZM315.518 8.03C316.098 8.03 316.558 8.19 316.898 8.51C317.238 8.83 317.408 9.26 317.408 9.8V21.44C317.408 21.96 317.228 22.38 316.868 22.7C316.528 23.02 316.078 23.18 315.518 23.18C314.978 23.18 314.548 23.03 314.228 22.73C313.908 22.43 313.748 22.02 313.748 21.5V20.75C313.288 21.55 312.668 22.17 311.888 22.61C311.108 23.03 310.228 23.24 309.248 23.24C305.648 23.24 303.848 21.22 303.848 17.18V9.8C303.848 9.26 304.018 8.83 304.358 8.51C304.698 8.19 305.148 8.03 305.708 8.03C306.288 8.03 306.748 8.19 307.088 8.51C307.428 8.83 307.598 9.26 307.598 9.8V17.21C307.598 18.25 307.808 19.02 308.228 19.52C308.648 20.02 309.308 20.27 310.208 20.27C311.248 20.27 312.078 19.93 312.698 19.25C313.338 18.55 313.658 17.63 313.658 16.49V9.8C313.658 9.26 313.828 8.83 314.168 8.51C314.508 8.19 314.958 8.03 315.518 8.03ZM326.621 23.24C324.441 23.24 322.681 22.81 321.341 21.95C320.701 21.57 320.381 21.03 320.381 20.33C320.381 19.93 320.491 19.61 320.711 19.37C320.931 19.11 321.201 18.98 321.521 18.98C321.861 18.98 322.331 19.14 322.931 19.46C323.571 19.76 324.151 19.99 324.671 20.15C325.211 20.31 325.891 20.39 326.711 20.39C327.551 20.39 328.201 20.25 328.661 19.97C329.141 19.69 329.381 19.3 329.381 18.8C329.381 18.46 329.281 18.19 329.081 17.99C328.901 17.79 328.561 17.61 328.061 17.45C327.581 17.27 326.841 17.07 325.841 16.85C324.061 16.49 322.781 15.98 322.001 15.32C321.241 14.66 320.861 13.75 320.861 12.59C320.861 11.71 321.121 10.92 321.641 10.22C322.161 9.5 322.871 8.95 323.771 8.57C324.691 8.17 325.731 7.97 326.891 7.97C327.731 7.97 328.541 8.08 329.321 8.3C330.101 8.5 330.801 8.8 331.421 9.2C332.061 9.6 332.381 10.13 332.381 10.79C332.381 11.19 332.271 11.53 332.051 11.81C331.831 12.07 331.561 12.2 331.241 12.2C331.021 12.2 330.801 12.16 330.581 12.08C330.381 11.98 330.121 11.84 329.801 11.66C329.221 11.36 328.721 11.14 328.301 11C327.881 10.84 327.361 10.76 326.741 10.76C326.001 10.76 325.411 10.91 324.971 11.21C324.551 11.51 324.341 11.92 324.341 12.44C324.341 12.94 324.561 13.32 325.001 13.58C325.441 13.84 326.291 14.1 327.551 14.36C328.891 14.64 329.941 14.96 330.701 15.32C331.461 15.68 332.001 16.13 332.321 16.67C332.661 17.21 332.831 17.9 332.831 18.74C332.831 20.1 332.261 21.19 331.121 22.01C330.001 22.83 328.501 23.24 326.621 23.24ZM342.382 23.24C340.922 23.24 339.632 22.93 338.512 22.31C337.412 21.69 336.562 20.81 335.962 19.67C335.362 18.53 335.062 17.2 335.062 15.68C335.062 14.16 335.372 12.82 335.992 11.66C336.632 10.48 337.522 9.57 338.662 8.93C339.802 8.29 341.112 7.97 342.592 7.97C343.372 7.97 344.152 8.08 344.932 8.3C345.732 8.52 346.432 8.82 347.032 9.2C347.672 9.62 347.992 10.15 347.992 10.79C347.992 11.23 347.882 11.59 347.662 11.87C347.462 12.13 347.192 12.26 346.852 12.26C346.632 12.26 346.402 12.21 346.162 12.11C345.922 12.01 345.682 11.89 345.442 11.75C345.002 11.49 344.582 11.29 344.182 11.15C343.782 10.99 343.322 10.91 342.802 10.91C341.562 10.91 340.602 11.32 339.922 12.14C339.262 12.94 338.932 14.1 338.932 15.62C338.932 17.12 339.262 18.28 339.922 19.1C340.602 19.9 341.562 20.3 342.802 20.3C343.302 20.3 343.742 20.23 344.122 20.09C344.522 19.93 344.962 19.72 345.442 19.46C345.742 19.28 346.002 19.15 346.222 19.07C346.442 18.97 346.662 18.92 346.882 18.92C347.202 18.92 347.472 19.06 347.692 19.34C347.912 19.62 348.022 19.97 348.022 20.39C348.022 20.73 347.942 21.03 347.782 21.29C347.642 21.53 347.402 21.75 347.062 21.95C346.442 22.35 345.722 22.67 344.902 22.91C344.082 23.13 343.242 23.24 342.382 23.24ZM356.88 7.97C358.92 7.97 360.43 8.48 361.41 9.5C362.41 10.5 362.91 12.03 362.91 14.09V21.41C362.91 21.95 362.75 22.38 362.43 22.7C362.11 23 361.67 23.15 361.11 23.15C360.59 23.15 360.16 22.99 359.82 22.67C359.5 22.35 359.34 21.93 359.34 21.41V20.75C359 21.53 358.46 22.14 357.72 22.58C357 23.02 356.16 23.24 355.2 23.24C354.22 23.24 353.33 23.04 352.53 22.64C351.73 22.24 351.1 21.69 350.64 20.99C350.18 20.29 349.95 19.51 349.95 18.65C349.95 17.57 350.22 16.72 350.76 16.1C351.32 15.48 352.22 15.03 353.46 14.75C354.7 14.47 356.41 14.33 358.59 14.33H359.34V13.64C359.34 12.66 359.13 11.95 358.71 11.51C358.29 11.05 357.61 10.82 356.67 10.82C356.09 10.82 355.5 10.91 354.9 11.09C354.3 11.25 353.59 11.49 352.77 11.81C352.25 12.07 351.87 12.2 351.63 12.2C351.27 12.2 350.97 12.07 350.73 11.81C350.51 11.55 350.4 11.21 350.4 10.79C350.4 10.45 350.48 10.16 350.64 9.92C350.82 9.66 351.11 9.42 351.51 9.2C352.21 8.82 353.04 8.52 354 8.3C354.98 8.08 355.94 7.97 356.88 7.97ZM355.95 20.54C356.95 20.54 357.76 20.21 358.38 19.55C359.02 18.87 359.34 18 359.34 16.94V16.31H358.8C357.46 16.31 356.42 16.37 355.68 16.49C354.94 16.61 354.41 16.82 354.09 17.12C353.77 17.42 353.61 17.83 353.61 18.35C353.61 18.99 353.83 19.52 354.27 19.94C354.73 20.34 355.29 20.54 355.95 20.54ZM375.241 7.97C377.001 7.97 378.311 8.47 379.171 9.47C380.031 10.47 380.461 11.98 380.461 14V21.38C380.461 21.94 380.291 22.38 379.951 22.7C379.631 23.02 379.181 23.18 378.601 23.18C378.021 23.18 377.561 23.02 377.221 22.7C376.881 22.38 376.711 21.94 376.711 21.38V14.21C376.711 13.07 376.491 12.24 376.051 11.72C375.631 11.2 374.961 10.94 374.041 10.94C372.961 10.94 372.091 11.28 371.431 11.96C370.791 12.64 370.471 13.55 370.471 14.69V21.38C370.471 21.94 370.301 22.38 369.961 22.7C369.621 23.02 369.161 23.18 368.581 23.18C368.001 23.18 367.541 23.02 367.201 22.7C366.881 22.38 366.721 21.94 366.721 21.38V9.77C366.721 9.25 366.891 8.83 367.231 8.51C367.571 8.19 368.031 8.03 368.611 8.03C369.131 8.03 369.551 8.19 369.871 8.51C370.211 8.81 370.381 9.21 370.381 9.71V10.52C370.881 9.7 371.551 9.07 372.391 8.63C373.231 8.19 374.181 7.97 375.241 7.97ZM396.51 1.7C397.07 1.7 397.53 1.86 397.89 2.18C398.25 2.5 398.43 2.92 398.43 3.44V21.38C398.43 21.92 398.26 22.35 397.92 22.67C397.58 22.99 397.13 23.15 396.57 23.15C396.01 23.15 395.56 22.99 395.22 22.67C394.88 22.35 394.71 21.92 394.71 21.38V20.63C394.27 21.45 393.63 22.09 392.79 22.55C391.97 23.01 391.03 23.24 389.97 23.24C388.71 23.24 387.58 22.92 386.58 22.28C385.6 21.64 384.83 20.74 384.27 19.58C383.73 18.4 383.46 17.05 383.46 15.53C383.46 14.01 383.73 12.68 384.27 11.54C384.83 10.4 385.6 9.52 386.58 8.9C387.56 8.28 388.69 7.97 389.97 7.97C391.03 7.97 391.97 8.19 392.79 8.63C393.61 9.07 394.24 9.69 394.68 10.49V3.38C394.68 2.88 394.84 2.48 395.16 2.18C395.5 1.86 395.95 1.7 396.51 1.7ZM390.96 20.33C392.16 20.33 393.08 19.92 393.72 19.1C394.38 18.28 394.71 17.11 394.71 15.59C394.71 14.07 394.38 12.91 393.72 12.11C393.08 11.29 392.17 10.88 390.99 10.88C389.79 10.88 388.86 11.28 388.2 12.08C387.54 12.88 387.21 14.03 387.21 15.53C387.21 17.05 387.54 18.23 388.2 19.07C388.86 19.91 389.78 20.33 390.96 20.33ZM408.978 23.24C407.478 23.24 406.158 22.93 405.018 22.31C403.898 21.69 403.028 20.8 402.408 19.64C401.788 18.48 401.478 17.13 401.478 15.59C401.478 14.05 401.788 12.71 402.408 11.57C403.028 10.41 403.898 9.52 405.018 8.9C406.158 8.28 407.478 7.97 408.978 7.97C410.478 7.97 411.788 8.28 412.908 8.9C414.048 9.52 414.918 10.41 415.518 11.57C416.138 12.71 416.448 14.05 416.448 15.59C416.448 17.13 416.138 18.48 415.518 19.64C414.918 20.8 414.048 21.69 412.908 22.31C411.788 22.93 410.478 23.24 408.978 23.24ZM408.948 20.33C410.168 20.33 411.098 19.93 411.738 19.13C412.378 18.33 412.698 17.15 412.698 15.59C412.698 14.05 412.378 12.88 411.738 12.08C411.098 11.26 410.178 10.85 408.978 10.85C407.778 10.85 406.848 11.26 406.188 12.08C405.548 12.88 405.228 14.05 405.228 15.59C405.228 17.15 405.548 18.33 406.188 19.13C406.828 19.93 407.748 20.33 408.948 20.33ZM423.871 16.88C423.531 16.88 423.251 16.76 423.031 16.52C422.831 16.28 422.731 15.95 422.731 15.53C422.731 14.43 422.931 13.5 423.331 12.74C423.731 11.98 424.311 11.15 425.071 10.25C425.671 9.53 426.111 8.93 426.391 8.45C426.671 7.97 426.811 7.43 426.811 6.83C426.811 6.17 426.561 5.65 426.061 5.27C425.581 4.87 424.921 4.67 424.081 4.67C423.361 4.67 422.671 4.83 422.011 5.15C421.351 5.45 420.581 5.89 419.701 6.47C419.201 6.75 418.791 6.89 418.471 6.89C418.131 6.89 417.831 6.74 417.571 6.44C417.331 6.12 417.211 5.75 417.211 5.33C417.211 4.75 417.451 4.28 417.931 3.92C418.771 3.2 419.761 2.64 420.901 2.24C422.041 1.82 423.191 1.61 424.351 1.61C425.571 1.61 426.651 1.82 427.591 2.24C428.551 2.66 429.291 3.24 429.811 3.98C430.351 4.72 430.621 5.57 430.621 6.53C430.621 7.57 430.371 8.48 429.871 9.26C429.371 10.02 428.641 10.88 427.681 11.84C426.861 12.68 426.241 13.39 425.821 13.97C425.421 14.53 425.171 15.17 425.071 15.89C425.011 16.21 424.871 16.46 424.651 16.64C424.451 16.8 424.191 16.88 423.871 16.88ZM423.931 23.18C423.291 23.18 422.761 22.97 422.341 22.55C421.921 22.11 421.711 21.57 421.711 20.93C421.711 20.29 421.921 19.76 422.341 19.34C422.761 18.9 423.291 18.68 423.931 18.68C424.571 18.68 425.101 18.9 425.521 19.34C425.941 19.76 426.151 20.29 426.151 20.93C426.151 21.57 425.931 22.11 425.491 22.55C425.071 22.97 424.551 23.18 423.931 23.18ZM16.91 79.405C13.73 79.405 10.94 78.745 8.54 77.425C6.17 76.105 4.325 74.215 3.005 71.755C1.715 69.295 1.07 66.415 1.07 63.115C1.07 59.845 1.715 56.98 3.005 54.52C4.325 52.06 6.17 50.17 8.54 48.85C10.94 47.53 13.73 46.87 16.91 46.87C20.72 46.87 24.065 47.875 26.945 49.885C27.455 50.245 27.815 50.635 28.025 51.055C28.265 51.475 28.385 52.015 28.385 52.675C28.385 53.605 28.115 54.4 27.575 55.06C27.065 55.69 26.435 56.005 25.685 56.005C25.235 56.005 24.83 55.945 24.47 55.825C24.11 55.675 23.69 55.45 23.21 55.15C22.16 54.52 21.17 54.07 20.24 53.8C19.31 53.53 18.35 53.395 17.36 53.395C14.69 53.395 12.695 54.205 11.375 55.825C10.085 57.415 9.44 59.845 9.44 63.115C9.44 66.415 10.085 68.875 11.375 70.495C12.695 72.085 14.69 72.88 17.36 72.88C18.26 72.88 19.13 72.745 19.97 72.475C20.81 72.175 21.89 71.725 23.21 71.125C23.84 70.795 24.305 70.57 24.605 70.45C24.905 70.33 25.265 70.27 25.685 70.27C26.435 70.27 27.065 70.6 27.575 71.26C28.115 71.89 28.385 72.67 28.385 73.6C28.385 74.23 28.265 74.77 28.025 75.22C27.815 75.64 27.455 76.03 26.945 76.39C24.065 78.4 20.72 79.405 16.91 79.405ZM45.878 56.41C46.898 56.32 47.708 56.56 48.308 57.13C48.908 57.67 49.208 58.48 49.208 59.56C49.208 60.76 48.923 61.63 48.353 62.17C47.813 62.71 46.823 63.055 45.383 63.205L44.033 63.34C42.533 63.52 41.453 64 40.793 64.78C40.163 65.53 39.848 66.565 39.848 67.885V75.58C39.848 76.81 39.458 77.74 38.678 78.37C37.928 78.97 36.983 79.27 35.843 79.27C34.703 79.27 33.743 78.97 32.963 78.37C32.213 77.74 31.838 76.81 31.838 75.58V60.01C31.838 58.87 32.213 57.985 32.963 57.355C33.743 56.725 34.673 56.41 35.753 56.41C36.863 56.41 37.748 56.71 38.408 57.31C39.098 57.91 39.443 58.75 39.443 59.83V60.685C39.923 59.365 40.703 58.345 41.783 57.625C42.893 56.905 44.048 56.515 45.248 56.455L45.878 56.41ZM54.6956 79.27C53.5556 79.27 52.5956 78.97 51.8156 78.37C51.0656 77.74 50.6906 76.81 50.6906 75.58V60.1C50.6906 58.87 51.0656 57.955 51.8156 57.355C52.5956 56.725 53.5556 56.41 54.6956 56.41C55.8356 56.41 56.7806 56.725 57.5306 57.355C58.3106 57.955 58.7006 58.87 58.7006 60.1V75.58C58.7006 76.81 58.3106 77.74 57.5306 78.37C56.7806 78.97 55.8356 79.27 54.6956 79.27ZM54.6956 53.26C53.3456 53.26 52.2656 52.915 51.4556 52.225C50.6756 51.505 50.2856 50.56 50.2856 49.39C50.2856 48.22 50.6756 47.29 51.4556 46.6C52.2656 45.91 53.3456 45.565 54.6956 45.565C56.0156 45.565 57.0806 45.91 57.8906 46.6C58.7006 47.29 59.1056 48.22 59.1056 49.39C59.1056 50.56 58.7006 51.505 57.8906 52.225C57.1106 52.915 56.0456 53.26 54.6956 53.26ZM73.6518 56.32C77.0718 56.32 79.5918 57.145 81.2118 58.795C82.8618 60.415 83.6868 62.89 83.6868 66.22V75.625C83.6868 76.765 83.3418 77.665 82.6518 78.325C81.9918 78.955 81.0618 79.27 79.8618 79.27C78.8118 79.27 77.9418 78.97 77.2518 78.37C76.5918 77.77 76.2318 76.96 76.1718 75.94C75.7518 77.02 75.0468 77.86 74.0568 78.46C73.0668 79.06 71.8818 79.36 70.5018 79.36C68.9718 79.36 67.5918 79.06 66.3618 78.46C65.1318 77.83 64.1568 76.975 63.4368 75.895C62.7468 74.785 62.4018 73.54 62.4018 72.16C62.4018 70.57 62.8068 69.31 63.6168 68.38C64.4568 67.42 65.7768 66.73 67.5768 66.31C69.3768 65.89 71.8068 65.68 74.8668 65.68H76.0818V65.14C76.0818 64.09 75.8418 63.34 75.3618 62.89C74.8818 62.41 74.0718 62.17 72.9318 62.17C71.7018 62.17 69.9018 62.59 67.5318 63.43C66.8418 63.67 66.2568 63.79 65.7768 63.79C65.0268 63.79 64.4268 63.52 63.9768 62.98C63.5268 62.44 63.3018 61.735 63.3018 60.865C63.3018 60.205 63.4368 59.665 63.7068 59.245C63.9768 58.825 64.4118 58.45 65.0118 58.12C66.0618 57.58 67.3818 57.145 68.9718 56.815C70.5618 56.485 72.1218 56.32 73.6518 56.32ZM72.3918 74.005C73.4718 74.005 74.3568 73.63 75.0468 72.88C75.7368 72.1 76.0818 71.11 76.0818 69.91V69.37H75.3618C73.4418 69.37 72.0768 69.55 71.2668 69.91C70.4568 70.24 70.0518 70.81 70.0518 71.62C70.0518 72.31 70.2618 72.88 70.6818 73.33C71.1318 73.78 71.7018 74.005 72.3918 74.005ZM102.216 56.41C103.236 56.32 104.046 56.56 104.646 57.13C105.246 57.67 105.546 58.48 105.546 59.56C105.546 60.76 105.261 61.63 104.691 62.17C104.151 62.71 103.161 63.055 101.721 63.205L100.371 63.34C98.8709 63.52 97.7909 64 97.1309 64.78C96.5009 65.53 96.1859 66.565 96.1859 67.885V75.58C96.1859 76.81 95.7959 77.74 95.0159 78.37C94.2659 78.97 93.3209 79.27 92.1809 79.27C91.0409 79.27 90.0809 78.97 89.3009 78.37C88.5509 77.74 88.1759 76.81 88.1759 75.58V60.01C88.1759 58.87 88.5509 57.985 89.3009 57.355C90.0809 56.725 91.0109 56.41 92.0909 56.41C93.2009 56.41 94.0859 56.71 94.7459 57.31C95.4359 57.91 95.7809 58.75 95.7809 59.83V60.685C96.2609 59.365 97.0409 58.345 98.1209 57.625C99.2309 56.905 100.386 56.515 101.586 56.455L102.216 56.41ZM131.064 79.36C128.634 79.36 126.489 78.895 124.629 77.965C122.799 77.005 121.374 75.655 120.354 73.915C119.364 72.175 118.869 70.135 118.869 67.795C118.869 65.455 119.364 63.43 120.354 61.72C121.374 59.98 122.799 58.645 124.629 57.715C126.459 56.785 128.604 56.32 131.064 56.32C133.524 56.32 135.669 56.785 137.499 57.715C139.329 58.645 140.739 59.98 141.729 61.72C142.749 63.43 143.259 65.455 143.259 67.795C143.259 70.135 142.749 72.175 141.729 73.915C140.739 75.655 139.329 77.005 137.499 77.965C135.669 78.895 133.524 79.36 131.064 79.36ZM131.064 73.375C133.914 73.375 135.339 71.515 135.339 67.795C135.339 64.075 133.914 62.215 131.064 62.215C128.214 62.215 126.789 64.075 126.789 67.795C126.789 71.515 128.214 73.375 131.064 73.375ZM165.202 56.41C166.432 56.41 167.407 56.74 168.127 57.4C168.847 58.06 169.207 58.96 169.207 60.1V75.67C169.207 76.72 168.832 77.59 168.082 78.28C167.332 78.94 166.357 79.27 165.157 79.27C164.077 79.27 163.192 78.985 162.502 78.415C161.812 77.815 161.452 77.02 161.422 76.03C160.732 77.11 159.847 77.935 158.767 78.505C157.717 79.075 156.502 79.36 155.122 79.36C152.272 79.36 150.157 78.58 148.777 77.02C147.397 75.43 146.707 73.03 146.707 69.82V60.1C146.707 58.96 147.067 58.06 147.787 57.4C148.507 56.74 149.482 56.41 150.712 56.41C151.942 56.41 152.917 56.74 153.637 57.4C154.357 58.06 154.717 58.96 154.717 60.1V70C154.717 72.16 155.647 73.24 157.507 73.24C158.587 73.24 159.472 72.85 160.162 72.07C160.852 71.29 161.197 70.27 161.197 69.01V60.1C161.197 58.96 161.557 58.06 162.277 57.4C162.997 56.74 163.972 56.41 165.202 56.41ZM215.005 56.32C217.435 56.32 219.31 57.055 220.63 58.525C221.95 59.965 222.61 62.41 222.61 65.86V75.58C222.61 76.81 222.22 77.74 221.44 78.37C220.69 78.97 219.745 79.27 218.605 79.27C217.465 79.27 216.505 78.97 215.725 78.37C214.975 77.74 214.6 76.81 214.6 75.58V65.68C214.6 64.48 214.39 63.64 213.97 63.16C213.55 62.68 212.935 62.44 212.125 62.44C211.075 62.44 210.235 62.815 209.605 63.565C208.975 64.315 208.66 65.35 208.66 66.67V75.58C208.66 76.81 208.285 77.74 207.535 78.37C206.785 78.97 205.825 79.27 204.655 79.27C203.515 79.27 202.555 78.97 201.775 78.37C201.025 77.74 200.65 76.81 200.65 75.58V65.68C200.65 64.48 200.44 63.64 200.02 63.16C199.6 62.68 198.985 62.44 198.175 62.44C197.125 62.44 196.285 62.815 195.655 63.565C195.055 64.315 194.755 65.35 194.755 66.67V75.58C194.755 76.81 194.365 77.74 193.585 78.37C192.835 78.97 191.89 79.27 190.75 79.27C189.61 79.27 188.65 78.97 187.87 78.37C187.12 77.74 186.745 76.81 186.745 75.58V60.01C186.745 58.84 187.135 57.955 187.915 57.355C188.725 56.725 189.685 56.41 190.795 56.41C191.845 56.41 192.715 56.695 193.405 57.265C194.125 57.805 194.5 58.6 194.53 59.65C196 57.43 198.25 56.32 201.28 56.32C204.49 56.32 206.635 57.625 207.715 60.235C208.465 59.035 209.47 58.09 210.73 57.4C211.99 56.68 213.415 56.32 215.005 56.32ZM231.136 79.27C229.996 79.27 229.036 78.97 228.256 78.37C227.506 77.74 227.131 76.81 227.131 75.58V60.1C227.131 58.87 227.506 57.955 228.256 57.355C229.036 56.725 229.996 56.41 231.136 56.41C232.276 56.41 233.221 56.725 233.971 57.355C234.751 57.955 235.141 58.87 235.141 60.1V75.58C235.141 76.81 234.751 77.74 233.971 78.37C233.221 78.97 232.276 79.27 231.136 79.27ZM231.136 53.26C229.786 53.26 228.706 52.915 227.896 52.225C227.116 51.505 226.726 50.56 226.726 49.39C226.726 48.22 227.116 47.29 227.896 46.6C228.706 45.91 229.786 45.565 231.136 45.565C232.456 45.565 233.521 45.91 234.331 46.6C235.141 47.29 235.546 48.22 235.546 49.39C235.546 50.56 235.141 51.505 234.331 52.225C233.551 52.915 232.486 53.26 231.136 53.26ZM259.452 56.41C260.652 56.41 261.612 56.755 262.332 57.445C263.052 58.105 263.412 58.99 263.412 60.1V76.3C263.412 79.96 262.302 82.735 260.082 84.625C257.892 86.515 254.667 87.46 250.407 87.46C248.757 87.46 247.197 87.31 245.727 87.01C244.257 86.71 243.012 86.275 241.992 85.705C241.452 85.405 241.017 85.015 240.687 84.535C240.387 84.055 240.237 83.515 240.237 82.915C240.237 82.045 240.447 81.34 240.867 80.8C241.317 80.26 241.887 79.99 242.577 79.99C243.117 79.99 244.092 80.215 245.502 80.665C246.432 80.965 247.257 81.19 247.977 81.34C248.697 81.52 249.432 81.61 250.182 81.61C252.012 81.61 253.347 81.22 254.187 80.44C255.057 79.69 255.492 78.49 255.492 76.84V75.13C254.832 76.12 253.887 76.915 252.657 77.515C251.427 78.085 250.092 78.37 248.652 78.37C246.732 78.37 245.022 77.92 243.522 77.02C242.022 76.12 240.852 74.845 240.012 73.195C239.172 71.515 238.752 69.58 238.752 67.39C238.752 65.2 239.172 63.265 240.012 61.585C240.852 59.905 242.022 58.615 243.522 57.715C245.022 56.785 246.732 56.32 248.652 56.32C250.122 56.32 251.472 56.62 252.702 57.22C253.932 57.82 254.877 58.645 255.537 59.695C255.597 58.675 255.972 57.88 256.662 57.31C257.382 56.71 258.312 56.41 259.452 56.41ZM251.082 72.385C252.492 72.385 253.587 71.95 254.367 71.08C255.147 70.21 255.537 68.98 255.537 67.39C255.537 65.8 255.147 64.555 254.367 63.655C253.587 62.755 252.492 62.305 251.082 62.305C249.702 62.305 248.622 62.755 247.842 63.655C247.062 64.525 246.672 65.77 246.672 67.39C246.672 68.95 247.062 70.18 247.842 71.08C248.652 71.95 249.732 72.385 251.082 72.385ZM282.128 56.41C283.148 56.32 283.958 56.56 284.558 57.13C285.158 57.67 285.458 58.48 285.458 59.56C285.458 60.76 285.173 61.63 284.603 62.17C284.063 62.71 283.073 63.055 281.633 63.205L280.283 63.34C278.783 63.52 277.703 64 277.043 64.78C276.413 65.53 276.098 66.565 276.098 67.885V75.58C276.098 76.81 275.708 77.74 274.928 78.37C274.178 78.97 273.233 79.27 272.093 79.27C270.953 79.27 269.993 78.97 269.213 78.37C268.463 77.74 268.088 76.81 268.088 75.58V60.01C268.088 58.87 268.463 57.985 269.213 57.355C269.993 56.725 270.923 56.41 272.003 56.41C273.113 56.41 273.998 56.71 274.658 57.31C275.348 57.91 275.693 58.75 275.693 59.83V60.685C276.173 59.365 276.953 58.345 278.033 57.625C279.143 56.905 280.298 56.515 281.498 56.455L282.128 56.41ZM297.29 56.32C300.71 56.32 303.23 57.145 304.85 58.795C306.5 60.415 307.325 62.89 307.325 66.22V75.625C307.325 76.765 306.98 77.665 306.29 78.325C305.63 78.955 304.7 79.27 303.5 79.27C302.45 79.27 301.58 78.97 300.89 78.37C300.23 77.77 299.87 76.96 299.81 75.94C299.39 77.02 298.685 77.86 297.695 78.46C296.705 79.06 295.52 79.36 294.14 79.36C292.61 79.36 291.23 79.06 290 78.46C288.77 77.83 287.795 76.975 287.075 75.895C286.385 74.785 286.04 73.54 286.04 72.16C286.04 70.57 286.445 69.31 287.255 68.38C288.095 67.42 289.415 66.73 291.215 66.31C293.015 65.89 295.445 65.68 298.505 65.68H299.72V65.14C299.72 64.09 299.48 63.34 299 62.89C298.52 62.41 297.71 62.17 296.57 62.17C295.34 62.17 293.54 62.59 291.17 63.43C290.48 63.67 289.895 63.79 289.415 63.79C288.665 63.79 288.065 63.52 287.615 62.98C287.165 62.44 286.94 61.735 286.94 60.865C286.94 60.205 287.075 59.665 287.345 59.245C287.615 58.825 288.05 58.45 288.65 58.12C289.7 57.58 291.02 57.145 292.61 56.815C294.2 56.485 295.76 56.32 297.29 56.32ZM296.03 74.005C297.11 74.005 297.995 73.63 298.685 72.88C299.375 72.1 299.72 71.11 299.72 69.91V69.37H299C297.08 69.37 295.715 69.55 294.905 69.91C294.095 70.24 293.69 70.81 293.69 71.62C293.69 72.31 293.9 72.88 294.32 73.33C294.77 73.78 295.34 74.005 296.03 74.005ZM325.854 56.41C326.874 56.32 327.684 56.56 328.284 57.13C328.884 57.67 329.184 58.48 329.184 59.56C329.184 60.76 328.899 61.63 328.329 62.17C327.789 62.71 326.799 63.055 325.359 63.205L324.009 63.34C322.509 63.52 321.429 64 320.769 64.78C320.139 65.53 319.824 66.565 319.824 67.885V75.58C319.824 76.81 319.434 77.74 318.654 78.37C317.904 78.97 316.959 79.27 315.819 79.27C314.679 79.27 313.719 78.97 312.939 78.37C312.189 77.74 311.814 76.81 311.814 75.58V60.01C311.814 58.87 312.189 57.985 312.939 57.355C313.719 56.725 314.649 56.41 315.729 56.41C316.839 56.41 317.724 56.71 318.384 57.31C319.074 57.91 319.419 58.75 319.419 59.83V60.685C319.899 59.365 320.679 58.345 321.759 57.625C322.869 56.905 324.024 56.515 325.224 56.455L325.854 56.41ZM352.272 79.36C350.262 79.36 348.567 79.21 347.187 78.91C345.807 78.61 344.592 78.13 343.542 77.47C343.122 77.26 342.792 76.9 342.552 76.39C342.312 75.88 342.192 75.31 342.192 74.68C342.192 73.87 342.402 73.21 342.822 72.7C343.272 72.16 343.827 71.89 344.487 71.89C344.937 71.89 345.357 71.95 345.747 72.07C346.137 72.16 346.617 72.325 347.187 72.565C348.147 72.895 348.987 73.15 349.707 73.33C350.457 73.51 351.402 73.6 352.542 73.6C353.352 73.6 353.982 73.495 354.432 73.285C354.912 73.045 355.152 72.715 355.152 72.295C355.152 71.965 355.032 71.71 354.792 71.53C354.582 71.35 354.162 71.185 353.532 71.035C352.902 70.855 351.837 70.615 350.337 70.315C347.667 69.805 345.732 69.04 344.532 68.02C343.362 66.97 342.777 65.5 342.777 63.61C342.777 62.23 343.197 60.985 344.037 59.875C344.907 58.765 346.092 57.895 347.592 57.265C349.092 56.635 350.772 56.32 352.632 56.32C353.982 56.32 355.287 56.485 356.547 56.815C357.837 57.145 358.977 57.61 359.967 58.21C360.897 58.75 361.362 59.62 361.362 60.82C361.362 61.66 361.137 62.365 360.687 62.935C360.237 63.505 359.682 63.79 359.022 63.79C358.242 63.79 357.312 63.535 356.232 63.025C355.512 62.695 354.867 62.455 354.297 62.305C353.757 62.125 353.112 62.035 352.362 62.035C351.612 62.035 351.027 62.155 350.607 62.395C350.187 62.605 349.977 62.92 349.977 63.34C349.977 63.82 350.262 64.195 350.832 64.465C351.432 64.735 352.602 65.035 354.342 65.365C357.252 65.875 359.307 66.655 360.507 67.705C361.707 68.725 362.307 70.21 362.307 72.16C362.307 74.35 361.392 76.105 359.562 77.425C357.762 78.715 355.332 79.36 352.272 79.36ZM383.603 71.89C384.293 71.89 384.848 72.16 385.268 72.7C385.718 73.24 385.943 73.945 385.943 74.815C385.943 76.015 385.358 76.93 384.188 77.56C383.168 78.07 381.953 78.505 380.543 78.865C379.163 79.195 377.888 79.36 376.718 79.36C374.258 79.36 372.113 78.895 370.283 77.965C368.453 77.035 367.043 75.7 366.053 73.96C365.063 72.22 364.568 70.18 364.568 67.84C364.568 65.62 365.033 63.64 365.963 61.9C366.923 60.13 368.243 58.765 369.923 57.805C371.633 56.815 373.553 56.32 375.683 56.32C377.753 56.32 379.568 56.77 381.128 57.67C382.688 58.57 383.888 59.845 384.728 61.495C385.598 63.145 386.033 65.08 386.033 67.3C386.033 67.99 385.868 68.53 385.538 68.92C385.238 69.28 384.788 69.46 384.188 69.46H372.308C372.518 70.9 372.983 71.935 373.703 72.565C374.423 73.195 375.488 73.51 376.898 73.51C377.648 73.51 378.338 73.435 378.968 73.285C379.598 73.105 380.303 72.865 381.083 72.565C381.533 72.385 381.968 72.235 382.388 72.115C382.838 71.965 383.243 71.89 383.603 71.89ZM375.908 61.72C374.858 61.72 374.018 62.065 373.388 62.755C372.758 63.415 372.383 64.39 372.263 65.68H379.328C379.148 63.04 378.008 61.72 375.908 61.72ZM408 56.41C409.23 56.41 410.205 56.74 410.925 57.4C411.645 58.06 412.005 58.96 412.005 60.1V75.67C412.005 76.72 411.63 77.59 410.88 78.28C410.13 78.94 409.155 79.27 407.955 79.27C406.875 79.27 405.99 78.985 405.3 78.415C404.61 77.815 404.25 77.02 404.22 76.03C403.53 77.11 402.645 77.935 401.565 78.505C400.515 79.075 399.3 79.36 397.92 79.36C395.07 79.36 392.955 78.58 391.575 77.02C390.195 75.43 389.505 73.03 389.505 69.82V60.1C389.505 58.96 389.865 58.06 390.585 57.4C391.305 56.74 392.28 56.41 393.51 56.41C394.74 56.41 395.715 56.74 396.435 57.4C397.155 58.06 397.515 58.96 397.515 60.1V70C397.515 72.16 398.445 73.24 400.305 73.24C401.385 73.24 402.27 72.85 402.96 72.07C403.65 71.29 403.995 70.27 403.995 69.01V60.1C403.995 58.96 404.355 58.06 405.075 57.4C405.795 56.74 406.77 56.41 408 56.41ZM19.34 116.89C20.03 116.89 20.585 117.16 21.005 117.7C21.455 118.24 21.68 118.945 21.68 119.815C21.68 121.015 21.095 121.93 19.925 122.56C18.905 123.07 17.69 123.505 16.28 123.865C14.9 124.195 13.625 124.36 12.455 124.36C9.995 124.36 7.85 123.895 6.02 122.965C4.19 122.035 2.78 120.7 1.79 118.96C0.8 117.22 0.305 115.18 0.305 112.84C0.305 110.62 0.77 108.64 1.7 106.9C2.66 105.13 3.98 103.765 5.66 102.805C7.37 101.815 9.29 101.32 11.42 101.32C13.49 101.32 15.305 101.77 16.865 102.67C18.425 103.57 19.625 104.845 20.465 106.495C21.335 108.145 21.77 110.08 21.77 112.3C21.77 112.99 21.605 113.53 21.275 113.92C20.975 114.28 20.525 114.46 19.925 114.46H8.045C8.255 115.9 8.72 116.935 9.44 117.565C10.16 118.195 11.225 118.51 12.635 118.51C13.385 118.51 14.075 118.435 14.705 118.285C15.335 118.105 16.04 117.865 16.82 117.565C17.27 117.385 17.705 117.235 18.125 117.115C18.575 116.965 18.98 116.89 19.34 116.89ZM11.645 106.72C10.595 106.72 9.755 107.065 9.125 107.755C8.495 108.415 8.12 109.39 8 110.68H15.065C14.885 108.04 13.745 106.72 11.645 106.72ZM29.5902 115.045C27.1002 115.045 25.8552 113.995 25.8552 111.895C25.8552 109.825 27.1002 108.79 29.5902 108.79H38.0502C39.3102 108.79 40.2402 109.06 40.8402 109.6C41.4702 110.14 41.7852 110.905 41.7852 111.895C41.7852 112.885 41.4702 113.665 40.8402 114.235C40.2402 114.775 39.3102 115.045 38.0502 115.045H29.5902ZM57.5323 124.36C53.9323 124.36 51.0823 123.34 48.9823 121.3C46.8823 119.26 45.8323 116.485 45.8323 112.975C45.8323 110.665 46.3423 108.625 47.3623 106.855C48.3823 105.085 49.8073 103.72 51.6373 102.76C53.4973 101.8 55.6123 101.32 57.9823 101.32C59.2423 101.32 60.5023 101.485 61.7623 101.815C63.0223 102.145 64.1323 102.61 65.0923 103.21C66.0223 103.78 66.4873 104.65 66.4873 105.82C66.4873 106.75 66.2623 107.515 65.8123 108.115C65.3923 108.685 64.8373 108.97 64.1473 108.97C63.6973 108.97 63.2623 108.91 62.8423 108.79C62.4223 108.64 61.9573 108.43 61.4473 108.16C60.8473 107.89 60.3373 107.695 59.9173 107.575C59.4973 107.425 59.0323 107.35 58.5223 107.35C55.5523 107.35 54.0673 109.165 54.0673 112.795C54.0673 114.595 54.4423 115.975 55.1923 116.935C55.9723 117.865 57.0823 118.33 58.5223 118.33C59.0323 118.33 59.4973 118.27 59.9173 118.15C60.3673 118 60.8623 117.79 61.4023 117.52C62.0023 117.25 62.4823 117.055 62.8423 116.935C63.2323 116.785 63.6523 116.71 64.1023 116.71C64.7923 116.71 65.3473 117.01 65.7673 117.61C66.2173 118.18 66.4423 118.93 66.4423 119.86C66.4423 120.43 66.3223 120.955 66.0823 121.435C65.8423 121.885 65.5123 122.23 65.0923 122.47C63.0223 123.73 60.5023 124.36 57.5323 124.36ZM80.5273 124.36C78.0973 124.36 75.9523 123.895 74.0923 122.965C72.2623 122.005 70.8373 120.655 69.8173 118.915C68.8273 117.175 68.3323 115.135 68.3323 112.795C68.3323 110.455 68.8273 108.43 69.8173 106.72C70.8373 104.98 72.2623 103.645 74.0923 102.715C75.9223 101.785 78.0673 101.32 80.5273 101.32C82.9873 101.32 85.1323 101.785 86.9623 102.715C88.7923 103.645 90.2023 104.98 91.1923 106.72C92.2123 108.43 92.7223 110.455 92.7223 112.795C92.7223 115.135 92.2123 117.175 91.1923 118.915C90.2023 120.655 88.7923 122.005 86.9623 122.965C85.1323 123.895 82.9873 124.36 80.5273 124.36ZM80.5273 118.375C83.3773 118.375 84.8023 116.515 84.8023 112.795C84.8023 109.075 83.3773 107.215 80.5273 107.215C77.6773 107.215 76.2523 109.075 76.2523 112.795C76.2523 116.515 77.6773 118.375 80.5273 118.375ZM124.61 101.32C127.04 101.32 128.915 102.055 130.235 103.525C131.555 104.965 132.215 107.41 132.215 110.86V120.58C132.215 121.81 131.825 122.74 131.045 123.37C130.295 123.97 129.35 124.27 128.21 124.27C127.07 124.27 126.11 123.97 125.33 123.37C124.58 122.74 124.205 121.81 124.205 120.58V110.68C124.205 109.48 123.995 108.64 123.575 108.16C123.155 107.68 122.54 107.44 121.73 107.44C120.68 107.44 119.84 107.815 119.21 108.565C118.58 109.315 118.265 110.35 118.265 111.67V120.58C118.265 121.81 117.89 122.74 117.14 123.37C116.39 123.97 115.43 124.27 114.26 124.27C113.12 124.27 112.16 123.97 111.38 123.37C110.63 122.74 110.255 121.81 110.255 120.58V110.68C110.255 109.48 110.045 108.64 109.625 108.16C109.205 107.68 108.59 107.44 107.78 107.44C106.73 107.44 105.89 107.815 105.26 108.565C104.66 109.315 104.36 110.35 104.36 111.67V120.58C104.36 121.81 103.97 122.74 103.19 123.37C102.44 123.97 101.495 124.27 100.355 124.27C99.2148 124.27 98.2548 123.97 97.4748 123.37C96.7248 122.74 96.3498 121.81 96.3498 120.58V105.01C96.3498 103.84 96.7398 102.955 97.5198 102.355C98.3298 101.725 99.2898 101.41 100.4 101.41C101.45 101.41 102.32 101.695 103.01 102.265C103.73 102.805 104.105 103.6 104.135 104.65C105.605 102.43 107.855 101.32 110.885 101.32C114.095 101.32 116.24 102.625 117.32 105.235C118.07 104.035 119.075 103.09 120.335 102.4C121.595 101.68 123.02 101.32 124.61 101.32ZM164.996 101.32C167.426 101.32 169.301 102.055 170.621 103.525C171.941 104.965 172.601 107.41 172.601 110.86V120.58C172.601 121.81 172.211 122.74 171.431 123.37C170.681 123.97 169.736 124.27 168.596 124.27C167.456 124.27 166.496 123.97 165.716 123.37C164.966 122.74 164.591 121.81 164.591 120.58V110.68C164.591 109.48 164.381 108.64 163.961 108.16C163.541 107.68 162.926 107.44 162.116 107.44C161.066 107.44 160.226 107.815 159.596 108.565C158.966 109.315 158.651 110.35 158.651 111.67V120.58C158.651 121.81 158.276 122.74 157.526 123.37C156.776 123.97 155.816 124.27 154.646 124.27C153.506 124.27 152.546 123.97 151.766 123.37C151.016 122.74 150.641 121.81 150.641 120.58V110.68C150.641 109.48 150.431 108.64 150.011 108.16C149.591 107.68 148.976 107.44 148.166 107.44C147.116 107.44 146.276 107.815 145.646 108.565C145.046 109.315 144.746 110.35 144.746 111.67V120.58C144.746 121.81 144.356 122.74 143.576 123.37C142.826 123.97 141.881 124.27 140.741 124.27C139.601 124.27 138.641 123.97 137.861 123.37C137.111 122.74 136.736 121.81 136.736 120.58V105.01C136.736 103.84 137.126 102.955 137.906 102.355C138.716 101.725 139.676 101.41 140.786 101.41C141.836 101.41 142.706 101.695 143.396 102.265C144.116 102.805 144.491 103.6 144.521 104.65C145.991 102.43 148.241 101.32 151.271 101.32C154.481 101.32 156.626 102.625 157.706 105.235C158.456 104.035 159.461 103.09 160.721 102.4C161.981 101.68 163.406 101.32 164.996 101.32ZM195.121 116.89C195.811 116.89 196.366 117.16 196.786 117.7C197.236 118.24 197.461 118.945 197.461 119.815C197.461 121.015 196.876 121.93 195.706 122.56C194.686 123.07 193.471 123.505 192.061 123.865C190.681 124.195 189.406 124.36 188.236 124.36C185.776 124.36 183.631 123.895 181.801 122.965C179.971 122.035 178.561 120.7 177.571 118.96C176.581 117.22 176.086 115.18 176.086 112.84C176.086 110.62 176.551 108.64 177.481 106.9C178.441 105.13 179.761 103.765 181.441 102.805C183.151 101.815 185.071 101.32 187.201 101.32C189.271 101.32 191.086 101.77 192.646 102.67C194.206 103.57 195.406 104.845 196.246 106.495C197.116 108.145 197.551 110.08 197.551 112.3C197.551 112.99 197.386 113.53 197.056 113.92C196.756 114.28 196.306 114.46 195.706 114.46H183.826C184.036 115.9 184.501 116.935 185.221 117.565C185.941 118.195 187.006 118.51 188.416 118.51C189.166 118.51 189.856 118.435 190.486 118.285C191.116 118.105 191.821 117.865 192.601 117.565C193.051 117.385 193.486 117.235 193.906 117.115C194.356 116.965 194.761 116.89 195.121 116.89ZM187.426 106.72C186.376 106.72 185.536 107.065 184.906 107.755C184.276 108.415 183.901 109.39 183.781 110.68H190.846C190.666 108.04 189.526 106.72 187.426 106.72ZM215.243 101.41C216.263 101.32 217.073 101.56 217.673 102.13C218.273 102.67 218.573 103.48 218.573 104.56C218.573 105.76 218.288 106.63 217.718 107.17C217.178 107.71 216.188 108.055 214.748 108.205L213.398 108.34C211.898 108.52 210.818 109 210.158 109.78C209.528 110.53 209.213 111.565 209.213 112.885V120.58C209.213 121.81 208.823 122.74 208.043 123.37C207.293 123.97 206.348 124.27 205.208 124.27C204.068 124.27 203.108 123.97 202.328 123.37C201.578 122.74 201.203 121.81 201.203 120.58V105.01C201.203 103.87 201.578 102.985 202.328 102.355C203.108 101.725 204.038 101.41 205.118 101.41C206.228 101.41 207.113 101.71 207.773 102.31C208.463 102.91 208.808 103.75 208.808 104.83V105.685C209.288 104.365 210.068 103.345 211.148 102.625C212.258 101.905 213.413 101.515 214.613 101.455L215.243 101.41ZM230.281 124.36C226.681 124.36 223.831 123.34 221.731 121.3C219.631 119.26 218.581 116.485 218.581 112.975C218.581 110.665 219.091 108.625 220.111 106.855C221.131 105.085 222.556 103.72 224.386 102.76C226.246 101.8 228.361 101.32 230.731 101.32C231.991 101.32 233.251 101.485 234.511 101.815C235.771 102.145 236.881 102.61 237.841 103.21C238.771 103.78 239.236 104.65 239.236 105.82C239.236 106.75 239.011 107.515 238.561 108.115C238.141 108.685 237.586 108.97 236.896 108.97C236.446 108.97 236.011 108.91 235.591 108.79C235.171 108.64 234.706 108.43 234.196 108.16C233.596 107.89 233.086 107.695 232.666 107.575C232.246 107.425 231.781 107.35 231.271 107.35C228.301 107.35 226.816 109.165 226.816 112.795C226.816 114.595 227.191 115.975 227.941 116.935C228.721 117.865 229.831 118.33 231.271 118.33C231.781 118.33 232.246 118.27 232.666 118.15C233.116 118 233.611 117.79 234.151 117.52C234.751 117.25 235.231 117.055 235.591 116.935C235.981 116.785 236.401 116.71 236.851 116.71C237.541 116.71 238.096 117.01 238.516 117.61C238.966 118.18 239.191 118.93 239.191 119.86C239.191 120.43 239.071 120.955 238.831 121.435C238.591 121.885 238.261 122.23 237.841 122.47C235.771 123.73 233.251 124.36 230.281 124.36ZM260.116 116.89C260.806 116.89 261.361 117.16 261.781 117.7C262.231 118.24 262.456 118.945 262.456 119.815C262.456 121.015 261.871 121.93 260.701 122.56C259.681 123.07 258.466 123.505 257.056 123.865C255.676 124.195 254.401 124.36 253.231 124.36C250.771 124.36 248.626 123.895 246.796 122.965C244.966 122.035 243.556 120.7 242.566 118.96C241.576 117.22 241.081 115.18 241.081 112.84C241.081 110.62 241.546 108.64 242.476 106.9C243.436 105.13 244.756 103.765 246.436 102.805C248.146 101.815 250.066 101.32 252.196 101.32C254.266 101.32 256.081 101.77 257.641 102.67C259.201 103.57 260.401 104.845 261.241 106.495C262.111 108.145 262.546 110.08 262.546 112.3C262.546 112.99 262.381 113.53 262.051 113.92C261.751 114.28 261.301 114.46 260.701 114.46H248.821C249.031 115.9 249.496 116.935 250.216 117.565C250.936 118.195 252.001 118.51 253.411 118.51C254.161 118.51 254.851 118.435 255.481 118.285C256.111 118.105 256.816 117.865 257.596 117.565C258.046 117.385 258.481 117.235 258.901 117.115C259.351 116.965 259.756 116.89 260.116 116.89ZM252.421 106.72C251.371 106.72 250.531 107.065 249.901 107.755C249.271 108.415 248.896 109.39 248.776 110.68H255.841C255.661 108.04 254.521 106.72 252.421 106.72ZM273.949 113.515C273.169 113.515 272.554 113.26 272.104 112.75C271.684 112.24 271.474 111.52 271.474 110.59C271.474 109.18 271.744 108.01 272.284 107.08C272.824 106.12 273.574 105.145 274.534 104.155C275.224 103.405 275.734 102.76 276.064 102.22C276.424 101.68 276.604 101.08 276.604 100.42C276.604 99.76 276.364 99.235 275.884 98.845C275.404 98.455 274.744 98.26 273.904 98.26C273.214 98.26 272.524 98.395 271.834 98.665C271.174 98.905 270.424 99.265 269.584 99.745L268.504 100.285C267.484 100.855 266.659 101.14 266.029 101.14C265.279 101.14 264.634 100.825 264.094 100.195C263.584 99.535 263.329 98.74 263.329 97.81C263.329 97.18 263.434 96.655 263.644 96.235C263.884 95.815 264.259 95.41 264.769 95.02C266.119 94.03 267.649 93.265 269.359 92.725C271.099 92.155 272.839 91.87 274.579 91.87C276.529 91.87 278.269 92.215 279.799 92.905C281.329 93.565 282.529 94.495 283.399 95.695C284.269 96.865 284.704 98.2 284.704 99.7C284.704 100.81 284.464 101.83 283.984 102.76C283.534 103.69 282.979 104.485 282.319 105.145C281.659 105.805 280.804 106.6 279.754 107.53C278.764 108.34 277.999 109.045 277.459 109.645C276.949 110.215 276.619 110.815 276.469 111.445C276.349 112.105 276.049 112.615 275.569 112.975C275.119 113.335 274.579 113.515 273.949 113.515ZM274.039 124.27C272.809 124.27 271.774 123.85 270.934 123.01C270.124 122.17 269.719 121.135 269.719 119.905C269.719 118.675 270.124 117.64 270.934 116.8C271.774 115.96 272.809 115.54 274.039 115.54C275.299 115.54 276.334 115.96 277.144 116.8C277.984 117.64 278.404 118.675 278.404 119.905C278.404 121.135 277.984 122.17 277.144 123.01C276.334 123.85 275.299 124.27 274.039 124.27Z" fill="white"/>
</svg>
